HIERARCHY
ROOT Hips
{
  OFFSET 0.000000 0.000000 0.000000
  CHANNELS 6 Xposition Yposition Zposition Zrotation Xrotation Yrotation
  JOINT RightUpLeg
  {
    OFFSET -7.011171 -8.524257 0.795777
    CHANNELS 3 Zrotation Xrotation Yrotation
    JOINT RightLeg
    {
      OFFSET -12.290656 -31.219929 18.284052
      CHANNELS 3 Zrotation Xrotation Yrotation
      JOINT RightFoot
      {
        OFFSET -7.405065 -43.057381 7.251644
        CHANNELS 3 Zrotation Xrotation Yrotation
        JOINT RightToeBase
        {
          OFFSET -5.869469 -2.190820 12.539885
          CHANNELS 3 Zrotation Xrotation Yrotation
          End Site
          {
            OFFSET 0.000000 4.000000 0.000000
          }
        }
      }
    }
  }
  JOINT LeftUpLeg
  {
    OFFSET 5.159706 -8.823431 0.467429
    CHANNELS 3 Zrotation Xrotation Yrotation
    JOINT LeftLeg
    {
      OFFSET 12.292163 -35.744160 10.406404
      CHANNELS 3 Zrotation Xrotation Yrotation
      JOINT LeftFoot
      {
        OFFSET -8.254738 -38.286129 -21.736525
        CHANNELS 3 Zrotation Xrotation Yrotation
        JOINT LeftToeBase
        {
          OFFSET 8.113782 -3.944483 10.441216
          CHANNELS 3 Zrotation Xrotation Yrotation
          End Site
          {
            OFFSET 0.000000 4.000000 0.000000
          }
        }
      }
    }
  }
  JOINT Spine
  {
    OFFSET 0.644925 12.140083 -5.103805
    CHANNELS 3 Zrotation Xrotation Yrotation
    JOINT Spine1
    {
      OFFSET 2.066843 13.878738 2.711909
      CHANNELS 3 Zrotation Xrotation Yrotation
      JOINT Spine2
      {
        OFFSET 0.877619 4.518270 3.282472
        CHANNELS 3 Zrotation Xrotation Yrotation
        JOINT Neck
        {
          OFFSET 1.799200 21.992897 0.608837
          CHANNELS 3 Zrotation Xrotation Yrotation
          JOINT Head
          {
            OFFSET 0.240098 7.126820 6.290081
            CHANNELS 3 Zrotation Xrotation Yrotation
            End Site
            {
              OFFSET 0.000000 4.000000 0.000000
            }
          }
        }
        JOINT RightShoulder
        {
          OFFSET -6.506138 12.513578 -1.090172
          CHANNELS 3 Zrotation Xrotation Yrotation
          JOINT RightArm
          {
            OFFSET -11.880345 -0.307488 1.633530
            CHANNELS 3 Zrotation Xrotation Yrotation
            JOINT RightForeArm
            {
              OFFSET -10.619799 -23.800255 1.507773
              CHANNELS 3 Zrotation Xrotation Yrotation
              JOINT RightHand
              {
                OFFSET 11.617857 -13.530082 19.328209
                CHANNELS 3 Zrotation Xrotation Yrotation
                End Site
                {
                  OFFSET 0.000000 4.000000 0.000000
                }
              }
            }
          }
        }
        JOINT LeftShoulder
        {
          OFFSET 8.024970 11.320389 -0.347999
          CHANNELS 3 Zrotation Xrotation Yrotation
          JOINT LeftArm
          {
            OFFSET 12.943959 -1.360822 1.244794
            CHANNELS 3 Zrotation Xrotation Yrotation
            JOINT LeftForeArm
            {
              OFFSET 6.183518 -24.465942 -2.385056
              CHANNELS 3 Zrotation Xrotation Yrotation
              JOINT LeftHand
              {
                OFFSET -8.028900 -14.865118 20.111027
                CHANNELS 3 Zrotation Xrotation Yrotation
                End Site
                {
                  OFFSET 0.000000 4.000000 0.000000
                }
              }
            }
          }
        }
      }
    }
  }
}
MOTION
Frames: 11
Frame Time: 0.050000
0.000000 0.000000 0.000000 -0.000000 0.000000 0.000000 -0.000000 0.000000 0.000000 -0.000000 0.000000 0.000000 -0.000000 0.000000 0.000000 -0.000000 0.000000 0.000000 -0.000000 0.000000 0.000000 -0.000000 0.000000 0.000000 -0.000000 0.000000 0.000000 -0.000000 0.000000 0.000000 -0.000000 0.000000 0.000000 -0.000000 0.000000 0.000000 -0.000000 0.000000 0.000000 -0.000000 0.000000 0.000000 -0.000000 0.000000 0.000000 -0.000000 0.000000 0.000000 -0.000000 0.000000 0.000000 -0.000000 0.000000 0.000000 -0.000000 0.000000 0.000000 -0.000000 0.000000 0.000000 -0.000000 0.000000 0.000000 -0.000000 0.000000 0.000000 -0.000000 0.000000 0.000000
0.777152 1.133585 -2.846636 -0.780175 0.882178 -0.369919 -0.645976 2.329167 -1.716654 2.751784 7.560934 0.516665 1.162761 -3.187246 -6.217743 -1.646480 -7.748504 7.879247 -1.070535 -0.009049 0.129532 3.035207 -3.760971 0.261360 -0.652629 2.123888 -0.169347 -0.517898 0.768015 0.218293 1.613386 -0.858962 0.230760 0.470434 -0.619193 -0.657707 -1.365989 -0.211783 0.902889 1.386043 0.814070 -1.245335 -1.311460 -0.042385 1.158371 -0.030553 0.889136 -3.939523 -0.910269 2.327611 2.737677 -1.041442 -3.591524 -2.681966 1.890002 1.224167 3.733959 -0.378590 0.642048 -2.055192 -0.296120 -0.630716 1.867271 -0.089437 0.768231 -1.021995 0.857460 0.027266 1.150131
1.374043 1.969862 -5.200466 -1.874453 1.839394 -0.860783 -1.936459 5.270663 -4.079021 7.941096 18.996505 1.393895 3.405104 -6.882391 -13.482733 -2.877594 -20.052103 17.791956 -1.967397 -0.178580 0.307085 6.445278 -8.009412 0.778144 -1.707305 4.734068 -1.118150 -0.832434 1.633847 1.234377 3.624890 -2.707317 0.792651 0.809070 -0.973794 -1.268090 -2.757345 -0.258512 1.700881 3.154833 1.025053 -2.807245 -2.942741 0.921483 2.569543 -0.051610 2.250660 -7.354201 -2.128189 4.795160 4.863535 -1.942297 -7.319434 -5.490800 3.741297 2.567941 7.487093 -1.277483 1.934303 -3.455753 -0.711185 -2.484818 2.852899 -0.877984 1.236779 -3.081091 3.167187 1.552667 3.520413
1.718217 2.523065 -7.401316 -2.336607 3.433507 -1.107603 -1.716105 11.786026 -7.264666 8.884382 26.640511 3.300056 8.163901 -12.173868 -19.780449 -0.967460 -31.312239 29.849992 -2.383637 -1.470644 0.340262 8.258134 -12.606834 1.711800 -1.298040 7.616396 -1.679935 -1.983298 3.067721 1.247282 4.740437 -5.694435 1.340866 1.451492 -0.879643 -2.040813 -4.041177 0.039570 2.500381 5.284027 1.339108 -4.843018 -5.075382 1.293261 4.443031 -0.627062 3.251572 -9.851918 -3.797824 8.668353 5.631290 -2.827149 -10.949258 -7.728575 6.398557 2.653358 11.080095 -1.946088 2.960844 -3.857211 -1.830855 -3.172060 3.218507 -1.231723 1.489616 -5.808322 5.311993 2.238994 6.191496
1.692311 2.366310 -9.599670 -2.415015 4.848244 -1.190719 0.595131 19.565660 -10.281044 5.833232 23.601278 6.085009 11.500906 -14.746282 -21.847215 1.168385 -35.113979 36.177752 -3.001465 -3.571171 -0.166037 9.623829 -14.365912 2.575747 -1.605074 9.261915 -3.329963 -2.196254 3.905239 2.638504 6.005499 -8.172890 1.650441 2.078336 -0.811601 -3.124073 -5.295440 0.484021 3.705127 6.947313 1.507616 -6.915558 -7.289661 1.139035 6.400061 -1.120183 3.779894 -12.119639 -5.370321 12.235354 6.412102 -5.461773 -12.209902 -10.046003 10.278497 0.929833 14.410235 -1.982108 3.330606 -4.117791 -2.935323 -2.066249 3.831736 -2.047345 0.201991 -7.863695 6.616726 2.769474 7.792346
1.291238 2.092677 -11.924711 -2.255297 5.947853 -1.171670 3.086709 24.515443 -12.281302 2.967854 15.714408 7.587484 12.224060 -14.267644 -22.066154 1.436318 -33.962118 36.448748 -4.403136 -6.945953 -1.682028 11.835243 -12.023248 3.107512 -1.743006 8.391991 -3.048748 -2.972271 4.904922 2.823756 7.010389 -9.412486 1.693307 2.015098 -1.106384 -3.617332 -5.336391 1.153710 4.368653 7.781470 0.244830 -8.545416 -9.348543 1.642417 8.207552 -2.435212 3.625390 -15.009190 -6.433463 14.723924 8.397986 -9.391696 -10.241421 -12.445936 15.460510 -2.497710 17.646854 -1.847374 2.811901 -5.147544 -4.078094 1.827302 5.963319 -3.119134 -2.112357 -10.726757 7.425751 1.695490 9.538943
0.449080 1.232475 -14.416125 -2.137705 7.250172 -1.179236 5.663915 28.247632 -14.036413 3.095198 7.617843 9.612574 6.448132 -18.524141 -27.050588 3.114952 -25.988593 38.277586 -5.390382 -10.183344 -2.973307 14.058317 -9.981190 3.036989 -4.324433 8.851894 -4.032073 -1.984658 4.560608 4.899582 8.588698 -10.540690 1.757390 2.369867 -0.576095 -4.929697 -6.511003 0.264909 5.966334 8.665252 -0.476405 -10.020611 -11.139099 1.822772 9.784927 -2.830540 3.742216 -18.386374 -7.256990 16.198355 11.138567 -13.285755 -8.447770 -14.736710 19.592701 -4.781418 20.462540 -2.195223 2.777329 -4.929494 -4.572267 3.279274 6.190546 -2.130921 -1.264968 -11.190391 6.803153 -0.709191 9.850016
-0.683125 0.071162 -17.020046 -2.349132 8.189032 -1.292767 8.377726 30.467373 -14.711603 3.496727 0.686189 10.989478 -0.014793 -21.154329 -32.069321 4.276704 -18.446068 39.388687 -5.492066 -13.901779 -4.217791 15.662528 -6.553401 2.580272 -6.004347 7.723658 -4.404383 -2.025078 5.195836 6.425685 11.072376 -11.403070 1.995497 2.446122 0.170973 -6.404524 -7.563637 -0.341876 7.701745 9.464156 -1.896296 -11.631664 -13.313888 2.080057 11.701460 -2.817609 3.397255 -22.273917 -8.026937 16.438624 14.749019 -18.020273 -5.369457 -17.783241 23.972561 -6.583540 23.769368 -2.985327 2.223697 -5.771516 -4.545256 5.227165 7.571096 -0.628049 0.209555 -10.894965 5.250272 -4.433234 9.425041
-1.925372 -0.892907 -19.526865 -3.028628 8.720610 -1.554292 10.876580 31.286144 -14.173628 4.994548 -4.355046 12.374218 -8.825871 -23.425700 -37.818717 5.282213 -10.159308 40.153746 -5.348151 -17.564306 -5.488639 17.838048 -2.603454 1.698363 -8.320449 6.294407 -5.065506 -1.973176 5.944094 8.587936 14.895528 -11.354279 2.306226 2.333633 0.243432 -8.057228 -8.435950 -0.394478 9.819644 10.214022 -4.157315 -13.830647 -16.494678 2.285906 14.507755 -2.604438 2.540070 -27.028560 -8.453627 15.517977 19.617597 -24.483831 0.396589 -21.364561 29.532161 -8.684812 27.881916 -4.966639 1.175972 -8.339454 -3.922997 7.309143 10.642844 3.032420 5.177600 -9.004691 1.203831 -12.094634 7.297408
-2.969683 -0.854772 -21.419847 -3.817438 9.451061 -1.854009 12.692773 31.646018 -13.609340 6.341994 -7.254270 13.681252 -13.605714 -23.236059 -41.118931 5.746196 -6.965380 40.959481 -6.036048 -19.988002 -6.680945 20.868779 -0.681929 0.960965 -10.981272 5.395257 -7.245776 -1.606710 6.814544 12.094664 18.353853 -11.865261 2.896062 2.767549 0.381546 -9.901704 -9.104134 -0.822183 12.001136 11.211979 -5.885079 -16.577557 -20.164375 2.097413 17.745823 -2.213658 2.174340 -31.513054 -8.048200 14.306722 24.496165 -31.519829 7.935441 -24.480154 35.667730 -10.769300 32.330228 -6.714301 0.627934 -12.170851 -3.885297 8.838890 14.716487 8.012905 13.304848 -6.762950 -4.935134 -21.971560 3.401521
-3.716775 -0.167328 -22.495220 -4.040850 10.561315 -1.960861 14.293043 31.954770 -13.413319 6.341646 -10.610862 14.344100 -15.298640 -21.968320 -42.225091 5.890428 -5.791824 41.175214 -7.889347 -22.016249 -8.265860 24.256379 -0.013870 0.436404 -14.248329 5.095982 -11.214126 -0.792375 7.799993 17.284299 21.279732 -12.923593 3.463983 3.272193 -0.157703 -11.634976 -9.171428 -1.032832 14.247583 11.153671 -7.758381 -19.159420 -23.783412 2.536322 20.945920 -2.052365 2.263979 -36.014702 -7.085550 13.310037 29.576918 -39.608074 18.011971 -25.881899 43.238893 -14.033442 37.133239 -8.056271 0.465498 -16.464087 -4.262353 10.307409 18.970123 13.532338 23.700301 -3.971331 -15.119265 -32.586087 -4.720079
